{"accessors":[{"bufferView":0,"byteOffset":0,"componentType":5126,"count":4,"max":[7.800000000000001,9.6,0.0],"min":[0.0,0.0,0.0],"type":"VEC3"},{"bufferView":0,"byteOffset":48,"componentType":5126,"count":4,"max":[0.0,9.6,0.0],"min":[0.0,0.0,-7.800000000000001],"type":"VEC3"},{"bufferView":0,"byteOffset":96,"componentType":5126,"count":4,"max":[7.800000000000001,9.6,0.0],"min":[7.800000000000001,0.0,-7.800000000000001],"type":"VEC3"},{"bufferView":0,"byteOffset":144,"componentType":5126,"count":8,"max":[7.800000000000001,0.0,0.0],"min":[0.0,0.0,-7.800000000000001],"type":"VEC3"},{"bufferView":0,"byteOffset":240,"componentType":5126,"count":41,"max":[7.800000000000001,9.6,0.0],"min":[0.0,9.6,-7.800000000000001],"type":"VEC3"},{"bufferView":0,"byteOffset":732,"componentType":5126,"count":4,"max":[7.800000000000001,9.6,-7.800000000000001],"min":[0.0,0.0,-7.800000000000001],"type":"VEC3"},{"bufferView":0,"byteOffset":780,"componentType":5126,"count":4,"max":[1.2,8.6,-1.2],"min":[1.2,0.0,-6.6],"type":"VEC3"},{"bufferView":0,"byteOffset":828,"componentType":5126,"count":4,"max":[6.600000000000001,8.6,-1.2],"min":[1.2,0.0,-1.2],"type":"VEC3"},{"bufferView":0,"byteOffset":876,"componentType":5126,"count":4,"max":[6.600000000000001,8.6,-1.2],"min":[6.600000000000001,0.0,-6.6],"type":"VEC3"},{"bufferView":0,"byteOffset":924,"componentType":5126,"count":4,"max":[6.600000000000001,8.6,-6.6],"min":[1.2,0.0,-6.6],"type":"VEC3"},{"bufferView":0,"byteOffset":972,"componentType":5126,"count":76,"max":[6.300000000000001,11.4,-1.5021624811087642],"min":[1.508646027497936,9.6,-6.297837518891235],"type":"VEC3"},{"bufferView":0,"byteOffset":1884,"componentType":5126,"count":4,"max":[6.600000000000001,8.6,-1.2],"min":[1.2,8.6,-6.6],"type":"VEC3"},{"bufferView":0,"byteOffset":1932,"componentType":5126,"count":37,"max":[6.300000000000001,11.4,-1.5021624811087642],"min":[1.508646027497936,11.4,-6.297837518891235],"type":"VEC3"},{"bufferView":1,"byteOffset":0,"componentType":5126,"count":4,"type":"VEC3"},{"bufferView":1,"byteOffset":48,"componentType":5126,"count":4,"type":"VEC3"},{"bufferView":1,"byteOffset":96,"componentType":5126,"count":4,"type":"VEC3"},{"bufferView":1,"byteOffset":144,"componentType":5126,"count":8,"type":"VEC3"},{"bufferView":1,"byteOffset":240,"componentType":5126,"count":41,"type":"VEC3"},{"bufferView":1,"byteOffset":732,"componentType":5126,"count":4,"type":"VEC3"},{"bufferView":1,"byteOffset":780,"componentType":5126,"count":4,"type":"VEC3"},{"bufferView":1,"byteOffset":828,"componentType":5126,"count":4,"type":"VEC3"},{"bufferView":1,"byteOffset":876,"componentType":5126,"count":4,"type":"VEC3"},{"bufferView":1,"byteOffset":924,"componentType":5126,"count":4,"type":"VEC3"},{"bufferView":1,"byteOffset":972,"componentType":5126,"count":76,"type":"VEC3"},{"bufferView":1,"byteOffset":1884,"componentType":5126,"count":4,"type":"VEC3"},{"bufferView":1,"byteOffset":1932,"componentType":5126,"count":37,"type":"VEC3"},{"bufferView":2,"byteOffset":0,"componentType":5126,"count":4,"type":"VEC2"},{"bufferView":2,"byteOffset":32,"componentType":5126,"count":4,"type":"VEC2"},{"bufferView":2,"byteOffset":64,"componentType":5126,"count":4,"type":"VEC2"},{"bufferView":2,"byteOffset":96,"componentType":5126,"count":8,"type":"VEC2"},{"bufferView":2,"byteOffset":160,"componentType":5126,"count":41,"type":"VEC2"},{"bufferView":2,"byteOffset":488,"componentType":5126,"count":4,"type":"VEC2"},{"bufferView":2,"byteOffset":520,"componentType":5126,"count":4,"type":"VEC2"},{"bufferView":2,"byteOffset":552,"componentType":5126,"count":4,"type":"VEC2"},{"bufferView":2,"byteOffset":584,"componentType":5126,"count":4,"type":"VEC2"},{"bufferView":2,"byteOffset":616,"componentType":5126,"count":4,"type":"VEC2"},{"bufferView":2,"byteOffset":648,"componentType":5126,"count":76,"type":"VEC2"},{"bufferView":2,"byteOffset":1256,"componentType":5126,"count":4,"type":"VEC2"},{"bufferView":2,"byteOffset":1288,"componentType":5126,"count":37,"type":"VEC2"},{"bufferView":3,"byteOffset":0,"componentType":5123,"count":6,"type":"SCALAR"},{"bufferView":3,"byteOffset":12,"componentType":5123,"count":6,"type":"SCALAR"},{"bufferView":3,"byteOffset":24,"componentType":5123,"count":6,"type":"SCALAR"},{"bufferView":3,"byteOffset":36,"componentType":5123,"count":24,"type":"SCALAR"},{"bufferView":3,"byteOffset":84,"componentType":5123,"count":123,"type":"SCALAR"},{"bufferView":3,"byteOffset":332,"componentType":5123,"count":6,"type":"SCALAR"},{"bufferView":3,"byteOffset":344,"componentType":5123,"count":6,"type":"SCALAR"},{"bufferView":3,"byteOffset":356,"componentType":5123,"count":6,"type":"SCALAR"},{"bufferView":3,"byteOffset":368,"componentType":5123,"count":6,"type":"SCALAR"},{"bufferView":3,"byteOffset":380,"componentType":5123,"count":6,"type":"SCALAR"},{"bufferView":3,"byteOffset":392,"componentType":5123,"count":222,"type":"SCALAR"},{"bufferView":3,"byteOffset":836,"componentType":5123,"count":6,"type":"SCALAR"},{"bufferView":3,"byteOffset":848,"componentType":5123,"count":105,"type":"SCALAR"}],"asset":{"generator":"Open CASCADE Technology [www.opencascade.com]","version":"2.0"},"bufferViews":[{"buffer":0,"byteLength":2376,"byteOffset":0,"byteStride":12,"target":34962},{"buffer":0,"byteLength":2376,"byteOffset":2376,"byteStride":12,"target":34962},{"buffer":0,"byteLength":1584,"byteOffset":4752,"byteStride":8,"target":34962},{"buffer":0,"byteLength":1060,"byteOffset":6336,"target":34963}],"buffers":[{"byteLength":7396,"uri":"./1x1x3.bin"}],"materials":[{"name":"mat_0","pbrMetallicRoughness":{"baseColorFactor":[0.800000011920929,0.800000011920929,0.800000011920929,1.0]},"doubleSided":true}],"meshes":[{"name":"Body001","primitives":[{"attributes":{"NORMAL":13,"POSITION":0,"TEXCOORD_0":26},"indices":39,"material":0,"mode":4},{"attributes":{"NORMAL":14,"POSITION":1,"TEXCOORD_0":27},"indices":40,"material":0,"mode":4},{"attributes":{"NORMAL":15,"POSITION":2,"TEXCOORD_0":28},"indices":41,"material":0,"mode":4},{"attributes":{"NORMAL":16,"POSITION":3,"TEXCOORD_0":29},"indices":42,"material":0,"mode":4},{"attributes":{"NORMAL":17,"POSITION":4,"TEXCOORD_0":30},"indices":43,"material":0,"mode":4},{"attributes":{"NORMAL":18,"POSITION":5,"TEXCOORD_0":31},"indices":44,"material":0,"mode":4},{"attributes":{"NORMAL":19,"POSITION":6,"TEXCOORD_0":32},"indices":45,"material":0,"mode":4},{"attributes":{"NORMAL":20,"POSITION":7,"TEXCOORD_0":33},"indices":46,"material":0,"mode":4},{"attributes":{"NORMAL":21,"POSITION":8,"TEXCOORD_0":34},"indices":47,"material":0,"mode":4},{"attributes":{"NORMAL":22,"POSITION":9,"TEXCOORD_0":35},"indices":48,"material":0,"mode":4},{"attributes":{"NORMAL":23,"POSITION":10,"TEXCOORD_0":36},"indices":49,"material":0,"mode":4},{"attributes":{"NORMAL":24,"POSITION":11,"TEXCOORD_0":37},"indices":50,"material":0,"mode":4},{"attributes":{"NORMAL":25,"POSITION":12,"TEXCOORD_0":38},"indices":51,"material":0,"mode":4}]}],"nodes":[{"mesh":0,"name":"Body001"}],"scene":0,"scenes":[{"nodes":[0]}]}