{"accessors":[{"bufferView":0,"byteOffset":0,"componentType":5126,"count":4,"max":[15.8,9.6,0.0],"min":[0.0,0.0,0.0],"type":"VEC3"},{"bufferView":0,"byteOffset":48,"componentType":5126,"count":4,"max":[0.0,9.6,0.0],"min":[0.0,0.0,-15.8],"type":"VEC3"},{"bufferView":0,"byteOffset":96,"componentType":5126,"count":4,"max":[15.8,9.6,0.0],"min":[15.8,0.0,-15.8],"type":"VEC3"},{"bufferView":0,"byteOffset":144,"componentType":5126,"count":8,"max":[15.8,0.0,0.0],"min":[0.0,0.0,-15.8],"type":"VEC3"},{"bufferView":0,"byteOffset":240,"componentType":5126,"count":120,"max":[15.8,9.6,0.0],"min":[0.0,9.599999999999998,-15.8],"type":"VEC3"},{"bufferView":0,"byteOffset":1680,"componentType":5126,"count":4,"max":[15.8,9.6,-15.8],"min":[0.0,0.0,-15.8],"type":"VEC3"},{"bufferView":0,"byteOffset":1728,"componentType":5126,"count":4,"max":[1.200000000000001,8.6,-1.199999999999999],"min":[1.200000000000001,0.0,-14.600000000000002],"type":"VEC3"},{"bufferView":0,"byteOffset":1776,"componentType":5126,"count":4,"max":[14.599999999999998,8.6,-1.199999999999999],"min":[1.200000000000001,0.0,-1.199999999999999],"type":"VEC3"},{"bufferView":0,"byteOffset":1824,"componentType":5126,"count":4,"max":[14.599999999999998,8.6,-1.199999999999999],"min":[14.599999999999998,0.0,-14.600000000000002],"type":"VEC3"},{"bufferView":0,"byteOffset":1872,"componentType":5126,"count":4,"max":[14.599999999999998,8.6,-14.600000000000002],"min":[1.200000000000001,0.0,-14.600000000000002],"type":"VEC3"},{"bufferView":0,"byteOffset":1920,"componentType":5126,"count":60,"max":[6.300000000000001,11.4,-1.5035198067573026],"min":[1.5140689028295365,9.6,-6.296480193242697],"type":"VEC3"},{"bufferView":0,"byteOffset":2640,"componentType":5126,"count":60,"max":[14.3,11.4,-1.5035198067573026],"min":[9.514068902829536,9.6,-6.296480193242697],"type":"VEC3"},{"bufferView":0,"byteOffset":3360,"componentType":5126,"count":60,"max":[6.300000000000002,11.399999999999999,-9.503519806757304],"min":[1.5140689028295376,9.599999999999998,-14.296480193242698],"type":"VEC3"},{"bufferView":0,"byteOffset":4080,"componentType":5126,"count":60,"max":[14.3,11.399999999999999,-9.503519806757304],"min":[9.514068902829536,9.599999999999998,-14.296480193242698],"type":"VEC3"},{"bufferView":0,"byteOffset":4800,"componentType":5126,"count":4,"max":[14.599999999999998,8.6,-1.199999999999999],"min":[1.200000000000001,8.6,-14.600000000000002],"type":"VEC3"},{"bufferView":0,"byteOffset":4848,"componentType":5126,"count":29,"max":[6.300000000000001,11.4,-1.5035198067573026],"min":[1.5140689028295365,11.4,-6.296480193242697],"type":"VEC3"},{"bufferView":0,"byteOffset":5196,"componentType":5126,"count":29,"max":[14.3,11.4,-1.5035198067573026],"min":[9.514068902829536,11.4,-6.296480193242697],"type":"VEC3"},{"bufferView":0,"byteOffset":5544,"componentType":5126,"count":29,"max":[6.300000000000002,11.399999999999999,-9.503519806757304],"min":[1.5140689028295376,11.399999999999999,-14.296480193242698],"type":"VEC3"},{"bufferView":0,"byteOffset":5892,"componentType":5126,"count":29,"max":[14.3,11.399999999999999,-9.503519806757304],"min":[9.514068902829536,11.399999999999999,-14.296480193242698],"type":"VEC3"},{"bufferView":1,"byteOffset":0,"componentType":5126,"count":4,"type":"VEC3"},{"bufferView":1,"byteOffset":48,"componentType":5126,"count":4,"type":"VEC3"},{"bufferView":1,"byteOffset":96,"componentType":5126,"count":4,"type":"VEC3"},{"bufferView":1,"byteOffset":144,"componentType":5126,"count":8,"type":"VEC3"},{"bufferView":1,"byteOffset":240,"componentType":5126,"count":120,"type":"VEC3"},{"bufferView":1,"byteOffset":1680,"componentType":5126,"count":4,"type":"VEC3"},{"bufferView":1,"byteOffset":1728,"componentType":5126,"count":4,"type":"VEC3"},{"bufferView":1,"byteOffset":1776,"componentType":5126,"count":4,"type":"VEC3"},{"bufferView":1,"byteOffset":1824,"componentType":5126,"count":4,"type":"VEC3"},{"bufferView":1,"byteOffset":1872,"componentType":5126,"count":4,"type":"VEC3"},{"bufferView":1,"byteOffset":1920,"componentType":5126,"count":60,"type":"VEC3"},{"bufferView":1,"byteOffset":2640,"componentType":5126,"count":60,"type":"VEC3"},{"bufferView":1,"byteOffset":3360,"componentType":5126,"count":60,"type":"VEC3"},{"bufferView":1,"byteOffset":4080,"componentType":5126,"count":60,"type":"VEC3"},{"bufferView":1,"byteOffset":4800,"componentType":5126,"count":4,"type":"VEC3"},{"bufferView":1,"byteOffset":4848,"componentType":5126,"count":29,"type":"VEC3"},{"bufferView":1,"byteOffset":5196,"componentType":5126,"count":29,"type":"VEC3"},{"bufferView":1,"byteOffset":5544,"componentType":5126,"count":29,"type":"VEC3"},{"bufferView":1,"byteOffset":5892,"componentType":5126,"count":29,"type":"VEC3"},{"bufferView":2,"byteOffset":0,"componentType":5126,"count":4,"type":"VEC2"},{"bufferView":2,"byteOffset":32,"componentType":5126,"count":4,"type":"VEC2"},{"bufferView":2,"byteOffset":64,"componentType":5126,"count":4,"type":"VEC2"},{"bufferView":2,"byteOffset":96,"componentType":5126,"count":8,"type":"VEC2"},{"bufferView":2,"byteOffset":160,"componentType":5126,"count":120,"type":"VEC2"},{"bufferView":2,"byteOffset":1120,"componentType":5126,"count":4,"type":"VEC2"},{"bufferView":2,"byteOffset":1152,"componentType":5126,"count":4,"type":"VEC2"},{"bufferView":2,"byteOffset":1184,"componentType":5126,"count":4,"type":"VEC2"},{"bufferView":2,"byteOffset":1216,"componentType":5126,"count":4,"type":"VEC2"},{"bufferView":2,"byteOffset":1248,"componentType":5126,"count":4,"type":"VEC2"},{"bufferView":2,"byteOffset":1280,"componentType":5126,"count":60,"type":"VEC2"},{"bufferView":2,"byteOffset":1760,"componentType":5126,"count":60,"type":"VEC2"},{"bufferView":2,"byteOffset":2240,"componentType":5126,"count":60,"type":"VEC2"},{"bufferView":2,"byteOffset":2720,"componentType":5126,"count":60,"type":"VEC2"},{"bufferView":2,"byteOffset":3200,"componentType":5126,"count":4,"type":"VEC2"},{"bufferView":2,"byteOffset":3232,"componentType":5126,"count":29,"type":"VEC2"},{"bufferView":2,"byteOffset":3464,"componentType":5126,"count":29,"type":"VEC2"},{"bufferView":2,"byteOffset":3696,"componentType":5126,"count":29,"type":"VEC2"},{"bufferView":2,"byteOffset":3928,"componentType":5126,"count":29,"type":"VEC2"},{"bufferView":3,"byteOffset":0,"componentType":5123,"count":6,"type":"SCALAR"},{"bufferView":3,"byteOffset":12,"componentType":5123,"count":6,"type":"SCALAR"},{"bufferView":3,"byteOffset":24,"componentType":5123,"count":6,"type":"SCALAR"},{"bufferView":3,"byteOffset":36,"componentType":5123,"count":24,"type":"SCALAR"},{"bufferView":3,"byteOffset":84,"componentType":5123,"count":378,"type":"SCALAR"},{"bufferView":3,"byteOffset":840,"componentType":5123,"count":6,"type":"SCALAR"},{"bufferView":3,"byteOffset":852,"componentType":5123,"count":6,"type":"SCALAR"},{"bufferView":3,"byteOffset":864,"componentType":5123,"count":6,"type":"SCALAR"},{"bufferView":3,"byteOffset":876,"componentType":5123,"count":6,"type":"SCALAR"},{"bufferView":3,"byteOffset":888,"componentType":5123,"count":6,"type":"SCALAR"},{"bufferView":3,"byteOffset":900,"componentType":5123,"count":174,"type":"SCALAR"},{"bufferView":3,"byteOffset":1248,"componentType":5123,"count":174,"type":"SCALAR"},{"bufferView":3,"byteOffset":1596,"componentType":5123,"count":174,"type":"SCALAR"},{"bufferView":3,"byteOffset":1944,"componentType":5123,"count":174,"type":"SCALAR"},{"bufferView":3,"byteOffset":2292,"componentType":5123,"count":6,"type":"SCALAR"},{"bufferView":3,"byteOffset":2304,"componentType":5123,"count":81,"type":"SCALAR"},{"bufferView":3,"byteOffset":2468,"componentType":5123,"count":81,"type":"SCALAR"},{"bufferView":3,"byteOffset":2632,"componentType":5123,"count":81,"type":"SCALAR"},{"bufferView":3,"byteOffset":2796,"componentType":5123,"count":81,"type":"SCALAR"}],"asset":{"generator":"Open CASCADE Technology [www.opencascade.com]","version":"2.0"},"bufferViews":[{"buffer":0,"byteLength":6240,"byteOffset":0,"byteStride":12,"target":34962},{"buffer":0,"byteLength":6240,"byteOffset":6240,"byteStride":12,"target":34962},{"buffer":0,"byteLength":4160,"byteOffset":12480,"byteStride":8,"target":34962},{"buffer":0,"byteLength":2960,"byteOffset":16640,"target":34963}],"buffers":[{"byteLength":19600,"uri":"./2x2x3.bin"}],"materials":[{"name":"mat_0","pbrMetallicRoughness":{"baseColorFactor":[0.800000011920929,0.800000011920929,0.800000011920929,1.0]},"doubleSided":true}],"meshes":[{"name":"Body001","primitives":[{"attributes":{"NORMAL":19,"POSITION":0,"TEXCOORD_0":38},"indices":57,"material":0,"mode":4},{"attributes":{"NORMAL":20,"POSITION":1,"TEXCOORD_0":39},"indices":58,"material":0,"mode":4},{"attributes":{"NORMAL":21,"POSITION":2,"TEXCOORD_0":40},"indices":59,"material":0,"mode":4},{"attributes":{"NORMAL":22,"POSITION":3,"TEXCOORD_0":41},"indices":60,"material":0,"mode":4},{"attributes":{"NORMAL":23,"POSITION":4,"TEXCOORD_0":42},"indices":61,"material":0,"mode":4},{"attributes":{"NORMAL":24,"POSITION":5,"TEXCOORD_0":43},"indices":62,"material":0,"mode":4},{"attributes":{"NORMAL":25,"POSITION":6,"TEXCOORD_0":44},"indices":63,"material":0,"mode":4},{"attributes":{"NORMAL":26,"POSITION":7,"TEXCOORD_0":45},"indices":64,"material":0,"mode":4},{"attributes":{"NORMAL":27,"POSITION":8,"TEXCOORD_0":46},"indices":65,"material":0,"mode":4},{"attributes":{"NORMAL":28,"POSITION":9,"TEXCOORD_0":47},"indices":66,"material":0,"mode":4},{"attributes":{"NORMAL":29,"POSITION":10,"TEXCOORD_0":48},"indices":67,"material":0,"mode":4},{"attributes":{"NORMAL":30,"POSITION":11,"TEXCOORD_0":49},"indices":68,"material":0,"mode":4},{"attributes":{"NORMAL":31,"POSITION":12,"TEXCOORD_0":50},"indices":69,"material":0,"mode":4},{"attributes":{"NORMAL":32,"POSITION":13,"TEXCOORD_0":51},"indices":70,"material":0,"mode":4},{"attributes":{"NORMAL":33,"POSITION":14,"TEXCOORD_0":52},"indices":71,"material":0,"mode":4},{"attributes":{"NORMAL":34,"POSITION":15,"TEXCOORD_0":53},"indices":72,"material":0,"mode":4},{"attributes":{"NORMAL":35,"POSITION":16,"TEXCOORD_0":54},"indices":73,"material":0,"mode":4},{"attributes":{"NORMAL":36,"POSITION":17,"TEXCOORD_0":55},"indices":74,"material":0,"mode":4},{"attributes":{"NORMAL":37,"POSITION":18,"TEXCOORD_0":56},"indices":75,"material":0,"mode":4}]}],"nodes":[{"mesh":0,"name":"Body001"}],"scene":0,"scenes":[{"nodes":[0]}]}